<?xml version="1.0" standalone="no"?>
<!DOCTYPE svg PUBLIC "-//W3C//DTD SVG 20010904//EN"
 "http://www.w3.org/TR/2001/REC-SVG-20010904/DTD/svg10.dtd">
<svg version="1.0" xmlns="http://www.w3.org/2000/svg"
 width="500.000000pt" height="500.000000pt" viewBox="0 0 500.000000 500.000000"
 preserveAspectRatio="xMidYMid meet">
<metadata>
Created by potrace 1.14, written by Peter Selinger 2001-2017
</metadata>
<g transform="translate(0.000000,500.000000) scale(0.100000,-0.100000)"
fill="#000000" stroke="none">
<path d="M2375 4370 c-169 -28 -339 -95 -435 -169 -19 -15 -46 -33 -58 -40
-27 -14 -212 -198 -212 -210 0 -5 -14 -26 -31 -47 -17 -22 -43 -64 -59 -94
-15 -30 -36 -71 -46 -90 -18 -34 -42 -117 -51 -176 l-5 -32 79 14 c142 24 313
74 394 114 32 17 65 30 73 30 8 0 28 11 44 25 17 14 32 25 35 25 3 0 26 -42
51 -94 26 -52 60 -111 76 -131 17 -21 30 -42 30 -48 0 -18 202 -242 233 -259
23 -12 47 9 115 96 55 71 145 240 140 263 -2 10 -27 -30 -56 -87 -76 -151
-152 -250 -191 -250 -14 0 -133 121 -172 175 -16 22 -49 72 -75 110 -25 39
-53 81 -62 95 -10 14 -28 52 -41 85 -31 78 -36 83 -63 58 -75 -67 -339 -159
-540 -188 -37 -6 -48 -4 -48 6 0 28 23 95 56 165 19 40 34 77 34 82 0 4 8 17
18 28 10 11 32 42 48 69 40 70 204 231 297 293 43 28 81 52 83 52 2 0 41 18
87 39 147 70 357 92 544 58 125 -22 286 -109 405 -217 58 -52 171 -188 210
-251 43 -69 44 -71 74 -129 15 -30 35 -67 43 -83 14 -24 14 -29 1 -38 -24 -17
-197 -3 -327 27 -101 23 -216 65 -233 85 -8 9 -51 31 -55 27 -5 -5 -35 -159
-34 -177 1 -18 11 8 34 91 l16 57 52 -29 c29 -16 70 -33 92 -38 22 -6 81 -21
132 -35 103 -28 240 -43 309 -32 44 6 45 8 39 33 -19 79 -147 295 -230 391
-70 80 -227 221 -246 221 -6 0 -39 17 -74 39 -117 70 -360 115 -500 91z"/>
<path d="M1360 3046 c-171 -60 -248 -127 -331 -287 -27 -52 -32 -72 -36 -162
-7 -134 7 -204 58 -291 50 -85 77 -115 147 -168 126 -94 318 -120 475 -66 42
15 83 32 90 38 6 5 36 28 65 50 55 43 131 149 160 224 11 29 16 79 16 171 1
120 -1 134 -25 186 -28 58 -96 162 -111 168 -5 2 -23 18 -39 36 -33 35 -140
89 -222 111 -79 21 -171 17 -247 -10z m291 -27 c142 -48 222 -116 289 -249 81
-159 79 -282 -4 -445 -48 -94 -133 -178 -224 -220 -41 -19 -162 -45 -212 -45
-52 0 -189 29 -220 47 -108 61 -172 129 -227 241 -42 84 -47 102 -51 178 -3
51 0 103 8 132 15 54 68 160 105 208 48 62 139 123 232 154 118 39 184 39 304
-1z"/>
<path d="M1560 2682 c-23 -23 -40 -48 -40 -61 0 -55 61 -121 113 -121 43 0
107 66 107 110 0 44 -67 110 -110 110 -20 0 -42 -12 -70 -38z m90 -17 c26 -31
-22 -75 -55 -51 -26 19 -13 66 19 66 13 0 29 -7 36 -15z"/>
<path d="M3379 3055 c-71 -19 -194 -80 -215 -107 -11 -13 -31 -31 -46 -41 -15
-9 -30 -28 -34 -42 -3 -14 -9 -25 -13 -25 -17 0 -61 -100 -75 -170 -20 -95
-20 -138 0 -236 28 -136 131 -273 253 -333 212 -105 473 -59 628 110 60 67
115 189 122 274 11 125 -1 197 -48 289 -73 144 -180 230 -350 282 -56 17 -160
17 -222 -1z m213 -20 c135 -36 211 -82 281 -168 39 -49 91 -156 108 -222 18
-73 6 -189 -27 -260 -15 -33 -33 -72 -38 -86 -15 -36 -98 -126 -130 -140 -14
-7 -26 -16 -26 -20 0 -26 -182 -79 -270 -79 -21 0 -73 7 -116 16 -124 25 -236
107 -307 224 -58 97 -62 114 -62 255 l0 130 40 80 c103 206 345 326 547 270z"/>
<path d="M3315 2702 c-16 -11 -36 -26 -43 -35 -17 -20 -18 -88 -1 -114 17 -28
61 -53 92 -53 32 0 81 40 97 81 11 26 11 36 -3 65 -17 34 -69 74 -97 74 -8 0
-28 -8 -45 -18z m93 -51 c5 -31 -23 -54 -48 -41 -43 23 -28 74 19 68 19 -2 27
-10 29 -27z"/>
<path d="M2300 2334 c-39 -8 -90 -37 -106 -62 -12 -19 -13 -26 -2 -41 15 -20
73 -71 82 -71 3 0 28 -14 55 -30 28 -18 76 -35 110 -41 l61 -11 0 -132 0 -131
-80 -85 c-44 -46 -80 -89 -80 -95 0 -5 -11 -30 -24 -55 -30 -57 -56 -144 -56
-188 0 -52 67 -116 138 -131 120 -25 240 -7 302 46 66 56 64 119 -7 277 -39
87 -44 95 -125 181 l-58 62 0 125 0 124 60 12 c36 6 77 23 104 41 25 17 49 31
54 31 14 0 82 78 82 93 0 17 -25 39 -70 63 -29 15 -65 18 -225 20 -104 1 -201
0 -215 -2z m397 -28 c28 -9 61 -25 74 -35 l23 -18 -25 -31 c-23 -29 -52 -48
-154 -101 -78 -40 -148 -35 -255 17 -80 39 -150 91 -150 110 0 17 41 45 92 63
44 16 76 18 198 15 99 -2 161 -8 197 -20z m-141 -544 c17 -15 39 -42 50 -59
10 -18 22 -33 26 -33 4 0 8 -9 8 -20 0 -63 -203 -67 -238 -4 -7 13 -6 27 5 49
15 29 70 84 85 85 4 0 9 -30 11 -67 l3 -68 2 73 c1 39 5 72 10 72 4 -1 21 -13
38 -28z m122 -325 c39 -18 47 -26 44 -47 -4 -33 -57 -87 -100 -101 -44 -14
-186 -14 -240 0 -43 12 -102 69 -102 99 1 20 75 58 140 72 72 15 204 3 258
-23z"/>
</g>
</svg>
